<svg class="advantage-iconBlock_icon" width="25" height="26" fill="none" xmlns="http://www.w3.org/2000/svg"><path d="M12.503 6.59A6.399 6.399 0 0 0 6.095 13a6.399 6.399 0 0 0 6.408 6.41A6.399 6.399 0 0 0 18.91 13a6.399 6.399 0 0 0-6.408-6.41Zm0 10.577A4.174 4.174 0 0 1 8.337 13a4.17 4.17 0 0 1 4.166-4.167A4.17 4.17 0 0 1 16.669 13a4.174 4.174 0 0 1-4.166 4.167Zm8.165-10.839c0 .831-.67 1.495-1.495 1.495a1.495 1.495 0 1 1 1.495-1.495Zm4.244 1.517c-.095-2.002-.552-3.776-2.019-5.238-1.461-1.461-3.235-1.919-5.237-2.02-2.063-.116-8.249-.116-10.312 0-1.997.096-3.77.553-5.237 2.015C.64 4.063.188 5.837.087 7.84c-.116 2.064-.116 8.25 0 10.314.096 2.003.553 3.777 2.02 5.239 1.467 1.461 3.235 1.919 5.237 2.02 2.063.116 8.249.116 10.312 0 2.002-.096 3.776-.553 5.237-2.02 1.461-1.462 1.919-3.236 2.02-5.239.116-2.064.116-8.244 0-10.309ZM22.246 20.37a4.218 4.218 0 0 1-2.376 2.377c-1.645.652-5.549.502-7.367.502-1.818 0-5.728.145-7.368-.502a4.218 4.218 0 0 1-2.376-2.377c-.652-1.645-.502-5.55-.502-7.369s-.145-5.73.502-7.37a4.218 4.218 0 0 1 2.376-2.376c1.646-.652 5.55-.502 7.368-.502 1.818 0 5.728-.145 7.367.502a4.218 4.218 0 0 1 2.376 2.377c.653 1.645.502 5.55.502 7.369s.15 5.73-.502 7.37Z" fill="#000"/></svg>