<svg width="25" height="20" fill="none" xmlns="http://www.w3.org/2000/svg"><path d="M24.219 16.333H3.125V1.292A.786.786 0 0 0 2.344.5H.78A.786.786 0 0 0 0 1.292v16.625C0 18.79.7 19.5 1.563 19.5h22.656a.786.786 0 0 0 .781-.792v-1.583a.786.786 0 0 0-.781-.792Zm-1.563-14.25h-5.764c-1.044 0-1.567 1.28-.829 2.027l1.582 1.604-3.582 3.63-3.583-3.63a1.547 1.547 0 0 0-2.21 0L4.918 9.113a.8.8 0 0 0 0 1.12l1.104 1.119c.305.309.8.309 1.105 0l2.249-2.28 3.582 3.63c.61.619 1.6.619 2.21 0l4.688-4.75 1.581 1.604c.739.748 2.001.218 2.001-.84V2.875a.786.786 0 0 0-.78-.792Z" fill="#000"/></svg>