<svg width="25" height="26" fill="none" xmlns="http://www.w3.org/2000/svg"><g clip-path="url(#a)"><path d="M12.5.89C5.81.89.39 6.31.39 13c0 6.69 5.42 12.11 12.11 12.11 6.69 0 12.11-5.42 12.11-12.11C24.61 6.31 19.19.89 12.5.89Zm2.788 17.095-4.307-3.13a.59.59 0 0 1-.239-.473V6.164c0-.322.264-.586.586-.586h2.344c.322 0 .586.264.586.586v6.724l3.1 2.256c.264.19.318.556.127.82l-1.377 1.894a.59.59 0 0 1-.82.127Z" fill="#000"/></g><defs><clipPath id="a"><path fill="#fff" transform="translate(0 .5)" d="M0 0h25v25H0z"/></clipPath></defs></svg>