<svg width="17" height="17" fill="none" xmlns="http://www.w3.org/2000/svg"><g clip-path="url(#a)"><path d="M16.281 12.434h-13.5v-9.5a.5.5 0 0 0-.5-.5h-1a.5.5 0 0 0-.5.5v10.5a1 1 0 0 0 1 1h14.5a.5.5 0 0 0 .5-.5v-1a.5.5 0 0 0-.5-.5Zm-1-9h-3.69a.75.75 0 0 0-.53 1.28l1.013 1.013L9.781 8.02 7.488 5.727a1 1 0 0 0-1.414 0L3.928 7.874a.5.5 0 0 0 0 .707l.707.707a.5.5 0 0 0 .707 0l1.44-1.44 2.292 2.293a1 1 0 0 0 1.414 0l3-3 1.013 1.013a.75.75 0 0 0 1.28-.53v-3.69a.5.5 0 0 0-.5-.5Z" fill="#682EE6"/></g><defs><clipPath id="a"><path fill="#fff" transform="translate(.781 .434)" d="M0 0h16v16H0z"/></clipPath></defs></svg>