<svg width="16" height="17" fill="none" xmlns="http://www.w3.org/2000/svg"><g clip-path="url(#a)"><path d="M12.444 5.44v-1c0-2.206-1.88-4-4.19-4-2.311 0-4.191 1.794-4.191 4v1H.92v8.5c0 1.38 1.172 2.5 2.619 2.5h9.428c1.447 0 2.62-1.12 2.62-2.5v-8.5h-3.143Zm-6.286-1c0-1.103.94-2 2.095-2 1.156 0 2.095.897 2.095 2v1h-4.19v-1Zm5.238 3.75c-.434 0-.786-.336-.786-.75s.352-.75.786-.75c.434 0 .786.336.786.75s-.352.75-.786.75Zm-6.286 0c-.434 0-.785-.336-.785-.75s.351-.75.785-.75c.434 0 .786.336.786.75s-.352.75-.786.75Z" fill="#682EE6"/></g><defs><clipPath id="a"><path fill="#fff" transform="translate(.92 .44)" d="M0 0h14.667v16H0z"/></clipPath></defs></svg>