<svg width="17" height="17" fill="none" xmlns="http://www.w3.org/2000/svg"><g clip-path="url(#a)"><path d="M15.908 1.037a.497.497 0 0 0-.382-.381C14.52.44 13.733.44 12.95.44c-3.225 0-5.16 1.725-6.603 4H3.09a1.5 1.5 0 0 0-1.34.828L.205 8.355A.75.75 0 0 0 .877 9.44H4.12l-.702.702a1 1 0 0 0 0 1.414l1.59 1.591a1 1 0 0 0 1.415 0l.702-.702v3.245a.75.75 0 0 0 1.084.672l3.085-1.544a1.497 1.497 0 0 0 .828-1.34v-3.263c2.268-1.447 4-3.388 4-6.597.003-.787.003-1.575-.214-2.58ZM12.125 5.69a1.25 1.25 0 1 1 0-2.5 1.25 1.25 0 0 1 0 2.5Z" fill="#682EE6"/></g><defs><clipPath id="a"><path fill="#fff" transform="translate(.124 .44)" d="M0 0h16v16H0z"/></clipPath></defs></svg>