<svg width="122" height="16" fill="none" xmlns="http://www.w3.org/2000/svg"><g clip-path="url(#a)" fill="#9CA0AC"><path d="m9.428 1.989.352-.461c.06-.073.109-.158.182-.23-.073-.158-.146-.34-.267-.546a4.78 4.78 0 0 0-.618-.11c-.049.085-.122.158-.17.231l-.352.46-.351.462L8.046 2a2.6 2.6 0 0 1 1.08.4l.302-.412Zm3.37 6.585c-.533-1.152-1.697-2.11-2.291-2.329-.085-2.437-1.527-3.347-2.921-3.347h-.582c-1.394 0-2.825.91-2.922 3.36-.581.218-1.745 1.26-2.29 2.413-.63 1.346-.413 4.184-.388 4.462l.048.764h1.915c1.406 0 1.843-1.406 1.976-2.425.424.849 1.103 2.146 1.71 3.48l.242.498.242-.558c.606-1.322 1.285-2.547 1.71-3.408.133 1.019.57 2.413 1.975 2.413h1.915l.049-.8c.024-.291.242-3.165-.388-4.523Zm-8.522 1.528c0 1.54-.266 2.413-.897 2.413h-.836c-.036-.958-.024-2.486.315-3.202.255-.545.655-1.176.994-1.503l.279 1.564.145.728Zm2.728-5.967h.582c.8 0 1.612.412 1.782 1.928H5.222c.182-1.516.982-1.928 1.782-1.928Zm.29 8.598c-.266-.643-.63-1.188-.884-1.734h1.782c-.267.558-.63 1.104-.897 1.734ZM9.38 7.701c-.049.412-.146 1.236-.23 1.649H5.451c-.085-.413-.182-1.237-.23-1.65H9.38Zm2.678 4.814h-.824c-.63 0-.897-.873-.897-2.413l.146-.764.278-1.54c.34.327.74.958.995 1.515.327.728.339 2.244.303 3.202ZM5.174 1.989l.303.388a2.6 2.6 0 0 1 1.08-.4l-.158-.207-.364-.436-.351-.461a1.614 1.614 0 0 1-.17-.23c-.182.024-.376.048-.618.109a4.618 4.618 0 0 0-.267.57c.073.072.121.145.182.23l.363.437ZM19.174 3.856h2.17v8.331h-2.17V3.856ZM28.12 8.962c-.618-.546-1.2-1.25-1.2-1.25s.157 1.068.157 1.759v2.716h-2v-8.44h.17L29.09 7.07c.666.594 1.2 1.261 1.2 1.261s-.134-1.08-.134-1.77V3.856h2v8.453h-.17L28.12 8.962ZM35.865 3.856h2.995c2.46 0 4.34 1.6 4.34 4.16 0 2.534-1.868 4.16-4.34 4.16h-2.995v-8.32Zm2.898 6.452c1.551 0 2.23-.874 2.23-2.28 0-1.383-.691-2.28-2.23-2.28h-.716v4.56h.716ZM46.654 8.9V3.857h2.17v5.008c0 1.02.448 1.528 1.418 1.528s1.418-.497 1.418-1.528V3.856h2.17v5.045c0 2.255-1.503 3.432-3.576 3.432-2.133 0-3.6-1.189-3.6-3.432ZM56.8 10.405l1.697-.995c.351.607.873 1.08 1.733 1.08.594 0 1.018-.219 1.018-.607 0-.4-.303-.57-1.127-.91l-.352-.145c-1.37-.558-2.303-1.225-2.303-2.716 0-1.456 1.115-2.414 2.728-2.414 1.2 0 2.024.352 2.715 1.431l-1.649.946c-.29-.46-.593-.594-1.006-.594-.436 0-.715.218-.715.594 0 .449.364.606.86.813l.352.145c1.528.619 2.643 1.25 2.643 2.826 0 1.552-1.176 2.462-3.14 2.462-1.685.012-2.909-.8-3.454-1.916ZM68.376 5.736h-2.364v-1.88h6.91v1.88h-2.364v6.451h-2.182V5.736ZM83.067 12.187h-2.436l-1.164-2.013c-.109.012-.218.012-.34.012h-.654v1.99h-2.17v-8.32h2.825c2.206 0 3.818.994 3.818 3.19 0 1.248-.57 2.073-1.467 2.534l1.588 2.607ZM79.08 8.355c1.128 0 1.649-.364 1.649-1.31 0-.946-.51-1.321-1.649-1.321h-.606v2.631h.606ZM86.498 3.856h2.17v8.331h-2.17V3.856ZM92.195 8.016c0-2.56 2.036-4.306 4.485-4.306 2.436 0 4.485 1.759 4.485 4.306 0 2.522-2.036 4.305-4.485 4.305-2.449.012-4.485-1.783-4.485-4.305Zm6.752 0c0-1.407-.922-2.39-2.267-2.39-1.346 0-2.267.995-2.267 2.39 0 1.43.922 2.389 2.267 2.389 1.345 0 2.267-.946 2.267-2.39ZM104.608 8.9V3.857h2.17v5.008c0 1.02.448 1.528 1.418 1.528s1.418-.497 1.418-1.528V3.856h2.17v5.045c0 2.255-1.503 3.432-3.576 3.432-2.133 0-3.6-1.189-3.6-3.432ZM114.754 10.405l1.697-.995c.351.607.872 1.08 1.733 1.08.594 0 1.018-.219 1.018-.607 0-.4-.303-.57-1.127-.91l-.352-.145c-1.369-.558-2.303-1.225-2.303-2.716 0-1.456 1.115-2.414 2.728-2.414 1.2 0 2.024.352 2.715 1.431l-1.649.946c-.291-.46-.594-.594-1.006-.594-.436 0-.715.218-.715.594 0 .449.364.606.861.813l.351.145c1.528.619 2.643 1.25 2.643 2.826 0 1.552-1.176 2.462-3.14 2.462-1.685.012-2.909-.8-3.454-1.916Z"/></g><defs><clipPath id="a"><path fill="#fff" transform="translate(.57 .5)" d="M0 0h121v15H0z"/></clipPath></defs></svg>