<svg xmlns="http://www.w3.org/2000/svg" viewBox="0 0 122.88 58.44"><path d="M50.59 0c-5.09.36-9.41 4.64-9.41 10.68v28.75a1.88 1.88 0 0 1-1.89 1.93h-9c-19.42 0-17.7-24.79-1.16-24.82h9.91V9.32H28.79c-6.58 0-11.46 2.46-14.76 6.12A20.38 20.38 0 0 0 9.07 29a19.87 19.87 0 0 0 5 13.49c3.37 3.65 8.47 6.12 15.46 6.12h16.91a2.08 2.08 0 0 0 2-2.08v-35a3.63 3.63 0 0 1 2.34-3.61 3.44 3.44 0 0 1 3.79 1.42c4.81 7.87 23.91 38.52 23.94 38.57a1.43 1.43 0 0 0 1.61.73c.45-.15.91-.64.91-1.86V11.47a3.61 3.61 0 0 1 2.33-3.61 3.39 3.39 0 0 1 3.84 1.42h.07c4.81 7.87 23.91 38.52 23.94 38.57a1.42 1.42 0 0 0 1.61.73c.47-.15 1-.61.94-1.82V.21h-7.25V27.4S102.18 20 94.77 7.28c-7.26-12.47-21-7.31-21 3.43V27.4S69.56 20 62.15 7.28C59 1.83 54.55-.26 50.59 0ZM30.07.21c-40.38 0-40 57.53.54 57.56h15.86c6.81 0 11.16-4 11.16-11.48V31.71L70 52.19c6 9.81 20.29 7.87 20.25-4.37V31.71s8.87 14.71 12.36 20.48c5.93 9.8 20.31 7.87 20.27-4.37V.2h-7.25v46.59a3.52 3.52 0 0 1-2.23 3.54 3.3 3.3 0 0 1-3.68-1.39v-.07s-19.11-30.56-24-38.53A1.48 1.48 0 0 0 84 9.65c-.55.16-1.07.63-1.06 1.82v35.28a3.64 3.64 0 0 1-2.19 3.62 3.25 3.25 0 0 1-3.64-1.43s-19.12-30.62-24-38.57a1.52 1.52 0 0 0-1.71-.73c-.55.17-1.07.64-1.06 1.83v35.02a3.92 3.92 0 0 1-3.86 3.91H29.52c-7.42 0-13-2.67-16.77-6.71A21.64 21.64 0 0 1 7.2 29a22.18 22.18 0 0 1 5.47-14.8c3.63-4 9.07-6.7 16.11-6.71h10.28V.2h-9Z" fill="#9CA0AC"/></svg>