<svg width="100" height="30" fill="none" xmlns="http://www.w3.org/2000/svg"><path d="M17.463 27.337h.5V2.665H2.443v24.674h15.02Zm2.453 1.985H.5V.678h19.416v28.644Z" fill="#9CA0AC" stroke="#9CA0AC"/><mask id="a" fill="#fff"><path d="M32.582 10.513h-.029c-1.628-2.653-3.273-4.996-4.93-7.355h-1.266v10.318h1.396v-7.4h.014c1.645 2.669 3.288 5.028 4.947 7.4h1.265V3.158h-1.397v7.355Zm10.08 2.963L39.42 3.158h-1.454l-3.52 10.318h1.512l.888-2.815h3.068l.8 2.815h1.95Zm-5.367-4.083c.407-1.357.815-2.608 1.178-4.201h.03c.408 1.593.77 2.844 1.15 4.2h-2.358Zm7.011 4.083h1.746V4.544h2.677V3.158H41.63v1.386h2.677v8.932Zm6.72-10.318h-1.73v10.318h1.73V3.158Zm5.384 10.494c2.662 0 4.32-2.402 4.32-5.483 0-2.889-1.833-5.189-4.32-5.189-2.488 0-4.322 2.3-4.322 5.19 0 3.08 1.658 5.482 4.322 5.482Zm0-9.197c1.73 0 2.457 1.813 2.457 3.715 0 1.975-.639 4.009-2.457 4.009-1.819 0-2.459-2.034-2.459-4.01 0-1.901.727-3.714 2.459-3.714Zm6.777 1.621h.016c1.643 2.669 3.287 5.028 4.945 7.4h1.266V3.158h-1.397v7.355h-.029c-1.629-2.653-3.273-4.996-4.931-7.355H61.79v10.318h1.396v-7.4Zm9.09 4.585h3.071l.8 2.815h1.949L74.854 3.158h-1.455l-3.521 10.318h1.514l.886-2.815Zm1.632-5.47h.029c.406 1.594.77 2.845 1.15 4.202h-2.359c.409-1.357.815-2.608 1.18-4.201Zm9.875 6.899h-3.446V3.158h-1.732v10.318h5.179V12.09ZM31.16 25.278c-.364.191-.756.25-1.222.25-1.498 0-2.953-1.444-2.953-3.89 0-2.344 1.266-3.833 3.128-3.833.67 0 1.397.25 1.862.544l.567-1.222c-.582-.444-1.527-.797-2.473-.797-3.054 0-4.946 2.462-4.946 5.277 0 3.037 1.892 5.396 4.887 5.396.99 0 1.964-.264 2.896-.635v-4.26h-1.746v3.17Zm5.076-3.17h2.852v-1.384h-2.852v-2.83h2.91v-1.386H34.49v10.318h5.178V25.44h-3.433v-3.33Zm8.292-5.777c-2.488 0-4.32 2.3-4.32 5.189 0 3.08 1.658 5.483 4.32 5.483 2.662 0 4.32-2.403 4.32-5.483 0-2.89-1.833-5.19-4.32-5.19Zm0 9.198c-1.819 0-2.459-2.035-2.459-4.01 0-1.902.727-3.715 2.46-3.715 1.73 0 2.457 1.813 2.457 3.715 0 1.976-.64 4.01-2.458 4.01Zm10.953-.252c-.363.192-.756.252-1.222.252-1.498 0-2.953-1.445-2.953-3.892 0-2.343 1.266-3.832 3.129-3.832.669 0 1.396.25 1.86.544l.568-1.222c-.582-.444-1.528-.797-2.474-.797-3.053 0-4.944 2.462-4.944 5.277 0 3.037 1.89 5.396 4.888 5.396.988 0 1.962-.264 2.894-.635v-4.26H55.48v3.17Zm9.223-5.791c0-2.006-1.208-2.978-3.156-2.978h-2.72v10.318h1.744v-3.891h.786L63 26.826h1.992l-2.05-4.275c1.119-.604 1.76-1.827 1.76-3.065Zm-3.404 2.122c-.175.015-.583.03-.728.044v-3.758h.772c1.031 0 1.613.603 1.613 1.665 0 1.385-.828 2.005-1.657 2.049Zm7.244-5.1-3.52 10.318h1.511l.888-2.816h3.07l.801 2.816h1.948l-3.244-10.318h-1.454Zm-.669 6.236c.407-1.357.815-2.61 1.178-4.202h.03c.407 1.592.77 2.845 1.15 4.202h-2.358Zm18.14-2.271H82.39v-3.965H80.66v10.318h1.731v-4.968h3.623v4.968h1.744v-10.29h-1.744v3.937Zm3.417 6.352h1.73V16.508h-1.73v10.317Zm7.84-1.296c-1.687 0-3.113-1.445-3.113-3.892 0-2.343 1.296-3.832 3.07-3.832.669 0 1.368.309 1.79.574l.552-1.252c-.597-.413-1.44-.796-2.342-.796-3.04 0-4.917 2.462-4.917 5.277 0 3.036 1.891 5.395 4.889 5.395.843 0 1.774-.34 2.297-.707l-.479-1.283a3.268 3.268 0 0 1-1.747.516Zm-20.757-9.02h-2.719v10.317h1.746v-3.891h.784c2.082 0 3.346-1.711 3.346-3.449 0-2.006-1.207-2.978-3.157-2.978Zm-.247 5.099c-.174.013-.596.027-.727.04v-3.755h.785c1.019 0 1.6.604 1.6 1.665 0 1.386-.829 2.006-1.658 2.05Z"/></mask><path d="M32.582 10.513h-.029c-1.628-2.653-3.273-4.996-4.93-7.355h-1.266v10.318h1.396v-7.4h.014c1.645 2.669 3.288 5.028 4.947 7.4h1.265V3.158h-1.397v7.355Zm10.08 2.963L39.42 3.158h-1.454l-3.52 10.318h1.512l.888-2.815h3.068l.8 2.815h1.95Zm-5.367-4.083c.407-1.357.815-2.608 1.178-4.201h.03c.408 1.593.77 2.844 1.15 4.2h-2.358Zm7.011 4.083h1.746V4.544h2.677V3.158H41.63v1.386h2.677v8.932Zm6.72-10.318h-1.73v10.318h1.73V3.158Zm5.384 10.494c2.662 0 4.32-2.402 4.32-5.483 0-2.889-1.833-5.189-4.32-5.189-2.488 0-4.322 2.3-4.322 5.19 0 3.08 1.658 5.482 4.322 5.482Zm0-9.197c1.73 0 2.457 1.813 2.457 3.715 0 1.975-.639 4.009-2.457 4.009-1.819 0-2.459-2.034-2.459-4.01 0-1.901.727-3.714 2.459-3.714Zm6.777 1.621h.016c1.643 2.669 3.287 5.028 4.945 7.4h1.266V3.158h-1.397v7.355h-.029c-1.629-2.653-3.273-4.996-4.931-7.355H61.79v10.318h1.396v-7.4Zm9.09 4.585h3.071l.8 2.815h1.949L74.854 3.158h-1.455l-3.521 10.318h1.514l.886-2.815Zm1.632-5.47h.029c.406 1.594.77 2.845 1.15 4.202h-2.359c.409-1.357.815-2.608 1.18-4.201Zm9.875 6.899h-3.446V3.158h-1.732v10.318h5.179V12.09ZM31.16 25.278c-.364.191-.756.25-1.222.25-1.498 0-2.953-1.444-2.953-3.89 0-2.344 1.266-3.833 3.128-3.833.67 0 1.397.25 1.862.544l.567-1.222c-.582-.444-1.527-.797-2.473-.797-3.054 0-4.946 2.462-4.946 5.277 0 3.037 1.892 5.396 4.887 5.396.99 0 1.964-.264 2.896-.635v-4.26h-1.746v3.17Zm5.076-3.17h2.852v-1.384h-2.852v-2.83h2.91v-1.386H34.49v10.318h5.178V25.44h-3.433v-3.33Zm8.292-5.777c-2.488 0-4.32 2.3-4.32 5.189 0 3.08 1.658 5.483 4.32 5.483 2.662 0 4.32-2.403 4.32-5.483 0-2.89-1.833-5.19-4.32-5.19Zm0 9.198c-1.819 0-2.459-2.035-2.459-4.01 0-1.902.727-3.715 2.46-3.715 1.73 0 2.457 1.813 2.457 3.715 0 1.976-.64 4.01-2.458 4.01Zm10.953-.252c-.363.192-.756.252-1.222.252-1.498 0-2.953-1.445-2.953-3.892 0-2.343 1.266-3.832 3.129-3.832.669 0 1.396.25 1.86.544l.568-1.222c-.582-.444-1.528-.797-2.474-.797-3.053 0-4.944 2.462-4.944 5.277 0 3.037 1.89 5.396 4.888 5.396.988 0 1.962-.264 2.894-.635v-4.26H55.48v3.17Zm9.223-5.791c0-2.006-1.208-2.978-3.156-2.978h-2.72v10.318h1.744v-3.891h.786L63 26.826h1.992l-2.05-4.275c1.119-.604 1.76-1.827 1.76-3.065Zm-3.404 2.122c-.175.015-.583.03-.728.044v-3.758h.772c1.031 0 1.613.603 1.613 1.665 0 1.385-.828 2.005-1.657 2.049Zm7.244-5.1-3.52 10.318h1.511l.888-2.816h3.07l.801 2.816h1.948l-3.244-10.318h-1.454Zm-.669 6.236c.407-1.357.815-2.61 1.178-4.202h.03c.407 1.592.77 2.845 1.15 4.202h-2.358Zm18.14-2.271H82.39v-3.965H80.66v10.318h1.731v-4.968h3.623v4.968h1.744v-10.29h-1.744v3.937Zm3.417 6.352h1.73V16.508h-1.73v10.317Zm7.84-1.296c-1.687 0-3.113-1.445-3.113-3.892 0-2.343 1.296-3.832 3.07-3.832.669 0 1.368.309 1.79.574l.552-1.252c-.597-.413-1.44-.796-2.342-.796-3.04 0-4.917 2.462-4.917 5.277 0 3.036 1.891 5.395 4.889 5.395.843 0 1.774-.34 2.297-.707l-.479-1.283a3.268 3.268 0 0 1-1.747.516Zm-20.757-9.02h-2.719v10.317h1.746v-3.891h.784c2.082 0 3.346-1.711 3.346-3.449 0-2.006-1.207-2.978-3.157-2.978Zm-.247 5.099c-.174.013-.596.027-.727.04v-3.755h.785c1.019 0 1.6.604 1.6 1.665 0 1.386-.829 2.006-1.658 2.05Z" fill="#9CA0AC" stroke="#9CA0AC" stroke-width="2" mask="url(#a)"/></svg>