<svg width="121" height="38" fill="none" xmlns="http://www.w3.org/2000/svg"><g clip-path="url(#a)" fill="#9CA0AC"><path d="M4.118 6.083v1.85h3.92v3.073h-3.92V22.14H.57V5.778C.57 1.758 2.969 0 6.48 0a7.423 7.423 0 0 1 2.298.306v3.007c-.47-.064-.944-.098-1.42-.102-2.023 0-3.24.675-3.24 2.872Zm32.61 7.745a8.786 8.786 0 1 1-17.573 0 8.787 8.787 0 0 1 17.572 0Zm-13.961.033a5.109 5.109 0 0 0 5.136 5.374 5.413 5.413 0 1 0-5.136-5.374Zm26.38-8.31v3.143H48.06c-2.635 0-4.866 1.52-4.866 4.595v8.854h-3.548V5.55h3.312v2.162a5.987 5.987 0 0 1 4.832-2.331c.458-.008.915.05 1.357.169Zm17.099 9.462H53.873a5.103 5.103 0 0 0 5.407 4.36 7.06 7.06 0 0 0 4.832-1.96l1.69 2.433a9.464 9.464 0 0 1-6.624 2.67 8.672 8.672 0 0 1-8.356-11.855 8.67 8.67 0 0 1 8.018-5.48 7.424 7.424 0 0 1 7.67 7.603c-.009.75-.1 1.498-.27 2.229h.006Zm-12.3-2.771h9.023a4.01 4.01 0 0 0-4.258-4.055 4.834 4.834 0 0 0-4.775 4.055h.01Zm29.771-.473v10.374H80.17v-9.901a3.544 3.544 0 0 0-3.615-3.852 3.674 3.674 0 0 0-3.785 3.852v9.9H69.22V5.552h3.312v1.656A6.597 6.597 0 0 1 77.5 5.18c3.914-.001 6.212 2.703 6.212 6.588l.005.001Zm18.531-2.737-2.501 1.96a5.28 5.28 0 0 0-4.46-2.535 5.393 5.393 0 0 0 0 10.78 5.336 5.336 0 0 0 4.46-2.501l2.501 1.926a8.009 8.009 0 0 1-6.995 3.852 8.668 8.668 0 1 1 0-17.335 7.927 7.927 0 0 1 6.986 3.852l.009.001Zm18.057 5.982h-12.373a5.1 5.1 0 0 0 5.407 4.36 7.06 7.06 0 0 0 4.832-1.96l1.69 2.433a9.465 9.465 0 0 1-6.624 2.67 8.667 8.667 0 0 1-8.962-8.496 8.673 8.673 0 0 1 2.462-6.224 8.677 8.677 0 0 1 6.162-2.615 7.422 7.422 0 0 1 7.671 7.603c-.01.75-.1 1.497-.27 2.228h.005Zm-12.3-2.771h9.023a4.016 4.016 0 0 0-1.244-2.957 4.016 4.016 0 0 0-3.014-1.098 4.833 4.833 0 0 0-4.771 4.054l.006.001ZM15.742.371h-3.548v21.77h3.548V.372ZM48.221 32.966a2.395 2.395 0 0 1-2.375 2.563 1.884 1.884 0 0 1-1.575-.731v.611h-1.223v-7.424h1.337v3a1.915 1.915 0 0 1 1.465-.584 2.393 2.393 0 0 1 2.371 2.565Zm-1.356-.01a1.258 1.258 0 0 0-1.267-1.346 1.357 1.357 0 0 0 0 2.703 1.265 1.265 0 0 0 1.267-1.357ZM53.816 30.51l-2.344 5.326a2.022 2.022 0 0 1-1.95 1.474 3.552 3.552 0 0 1-.86-.119v-1.12c.227.019.415.039.573.039a.977.977 0 0 0 1.02-.663l.148-.328-1.88-4.613h1.415l1.198 3.217 1.277-3.217 1.403.004ZM64.724 32.372v3.039h-1.338v-2.854a.854.854 0 0 0-.87-.95.87.87 0 0 0-.902.918v2.88h-1.337V32.55a.853.853 0 0 0-.87-.95.87.87 0 0 0-.902.95v2.854H57.17v-4.9h1.223v.436a1.884 1.884 0 0 1 1.385-.544 1.653 1.653 0 0 1 1.456.703 2.134 2.134 0 0 1 1.63-.703 1.781 1.781 0 0 1 1.86 1.975ZM67.425 28.73a.858.858 0 1 1-.85-.832.831.831 0 0 1 .85.831Zm-.188 6.68h-1.335v-4.9h1.335v4.9ZM69.801 35.41h-1.336v-7.423h1.336v7.424ZM72.367 35.41h-1.336v-7.423h1.336v7.424ZM77.018 31.135l-.673.821a1.614 1.614 0 0 0-1.099-.464c-.317 0-.524.109-.524.346 0 .199.158.298.51.435l.475.2c.881.356 1.376.73 1.376 1.494 0 1.01-.841 1.564-1.91 1.564a2.5 2.5 0 0 1-2.03-.95l.674-.815a1.92 1.92 0 0 0 1.376.664c.337 0 .624-.129.624-.408 0-.228-.204-.317-.51-.445l-.525-.218c-.831-.337-1.335-.723-1.335-1.495 0-.94.76-1.475 1.8-1.475a2.282 2.282 0 0 1 1.771.746ZM78.37 30.074h-.397v1h-.24v-1h-.396v-.22h1.031l.002.22Zm1.38 1h-.242V30.4l-.312.408h-.08l-.306-.408v.674h-.245v-1.24h.08l.517.666.51-.666h.078v1.239Z"/></g><defs><clipPath id="a"><path fill="#fff" transform="translate(.57)" d="M0 0h120v38H0z"/></clipPath></defs></svg>