<svg width="121" height="22" fill="none" xmlns="http://www.w3.org/2000/svg"><g clip-path="url(#a)" fill="#9CA0AC"><path d="M34.924 9.159c-1.3.16-2.12.54-2.66 1.08-.44.44-.66.98-.66 1.52 0 .979.7 1.679 1.58 1.679.54 0 1.08-.22 1.36-.54.1-.1.22-.32.22-.54l.16-3.2Zm2.22 5.799c-1.08 0-2.06-.7-2.34-1.78-.54.98-1.58 1.78-2.92 1.78-1.52 0-2.819-1.2-2.819-2.7 0-2.12 2-3.64 5.8-3.68v-.54c.06-1.519-.82-2.439-2.34-2.439-1.08 0-2.22.7-2.98 1.62-.06.06-.38-.28-.38-.32.98-1.96 2.76-3.04 4.6-3.04 2.119 0 3.639 1.52 3.579 4.06l-.16 4.22c0 .979.44 1.399.92 1.399.54 0 .92-.44 1.14-1.02 0-.06.32.1.32.16.02 1.46-1.06 2.28-2.42 2.28Zm13.498-.38h-2.88c-.06 0-.06-.54 0-.54 1.2-.16 1.36-.28 1.36-2.6v-3.26c0-1.459-.86-2.499-2.12-2.499-.86 0-1.68.44-2.06.98-.28.32-.44.92-.44 1.68v3.08c0 2.339.28 2.439 1.46 2.599 0 0 .06.54 0 .54h-5.499c-.06 0-.06-.54-.06-.54 1.3-.22 1.46-.28 1.46-2.6v-3.96c0-2.379-.28-2.499-1.68-2.699-.1 0-.06-.54 0-.54h4.12V6.6h.06c.92-1.74 2.34-2.76 4.059-2.76 1.96 0 3.46 1.52 3.46 4.02v3.52c0 2.339.22 2.439 1.52 2.599.1 0 .06.54 0 .54-.8.06-2 .06-2.76.06Zm8.718.38c-3.26 0-5.359-2.54-5.359-5.48 0-3.139 2.12-5.638 5.58-5.638 1.619 0 2.439.54 2.919.54.22 0 .44-.16.54-.44 0-.06.66-.06.66 0v3.899c0 .06-.66.06-.66 0-.86-1.78-2.06-3.3-3.46-3.3-1.74 0-2.76 1.84-2.76 4.38 0 2.7 1.4 4.499 3.36 4.499 1.3 0 2.76-.92 3.36-1.96.06-.1.48.1.48.22-.7 1.86-2.54 3.28-4.66 3.28Zm13.178-6.88v-.76c0-1.679-.82-2.659-1.84-2.659-1.3 0-2.28 1.4-2.5 3.42h4.34Zm-4.34 1.24c0 2.34 1.3 4.12 3.52 4.12 1.3 0 2.6-.86 3.3-1.96 0-.06.44.1.44.22-.6 1.84-2.54 3.26-4.72 3.26-3.42 0-5.419-2.5-5.419-5.48 0-2.979 2.12-5.638 5.7-5.638 2.699 0 4.498 1.78 4.658 4.219v.76H68.3c-.1.12-.1.4-.1.5Zm12.899 5.64c-1.68 0-3.14-.44-3.64-.76-.06-.06-.22-1.46-.22-2.88 0-.06.66-.1.66 0 .86 1.9 2.12 2.98 3.46 2.98 1.14 0 1.96-.6 1.96-1.52 0-1.08-1.3-1.58-2.6-2.16-1.58-.6-3.36-1.4-3.36-3.42 0-1.579 1.36-3.199 3.9-3.199 1.08 0 1.78.44 2.28.44.219 0 .439-.16.599-.44 0-.06.66-.06.66 0v3.58c0 .06-.66.06-.66 0-.86-1.62-1.9-2.76-3.14-2.76-1.14 0-1.68.76-1.68 1.36 0 1.08 1.24 1.52 2.54 2.06 1.58.66 3.42 1.46 3.42 3.52 0 1.739-1.64 3.199-4.18 3.199Zm5.359-9.599c-.16 0-.22-.44-.06-.54 1.14-1.02 3.04-2.76 4.059-3.839.06-.06.44 0 .44.1v3.2h3.68c.1 0 .1 1.02 0 1.02h-3.68v6.018c0 1.36.82 1.96 1.68 1.96.66 0 1.36-.54 1.68-1.2 0-.06.44.16.44.22-.44 1.46-1.84 2.6-3.42 2.6-1.68 0-3.04-1.08-3.04-3.2V5.36h-1.78Zm17.137 1.74c-.32 0-1.14-.98-1.74-.98-.28 0-.6.16-.86.44-.44.44-.82 1.46-.82 2.34v2.6c0 2.379.38 2.439 1.62 2.599 0 0 .06.54 0 .54h-5.739c-.06 0-.06-.54 0-.54 1.3-.22 1.46-.28 1.46-2.6v-3.96c0-2.339-.28-2.499-1.68-2.699-.1 0-.06-.54 0-.54h4.179V7h.1c.1-.32.32-.7.48-1.08.76-1.24 1.68-2 2.66-2 .92 0 1.68.7 1.68 1.46.06.86-1.08 1.72-1.34 1.72Zm11.218 1.4-3.539 9.058c-1.24 3.2-2.38 3.84-3.9 3.84-.86 0-1.84-.44-1.84-.7-.059-.44.54-2 .86-2 .1 0 1.4.6 2.06.6.92 0 1.52-.6 2-1.9l.66-1.74c-.22-.86-2.82-6.558-3.14-7.318-.66-1.52-1.08-2.7-1.52-3.14-.28-.28-.54-.38-1.299-.48-.06 0-.06-.54 0-.54.699 0 2.159.06 2.979.06.82 0 2.22-.06 2.92-.06.06 0 .06.54 0 .54-1.62.22-1.46.76-.6 2.92l1.899 4.6 1.52-3.96c.54-1.36.82-2.16.82-2.66 0-.6-.38-.82-1.52-.86-.06 0-.06-.6 0-.6.76 0 1.74.06 2.38.06.48 0 .98-.06 1.9-.06.059 0 .099.6 0 .6-.6.06-.86.22-1.2.54-.42.44-.74 1.32-1.44 3.2ZM16.767 3.58c-1.9-2.06-3.8-1.74-4.12-1.68.16.06.32 3.64 2.34 5.519 1.36 1.24 4.12.82 4.12.82s-.48-2.66-2.34-4.66Zm2.28 6.978c-.6 0-3.04.22-4.66 2.22-1.68 2.12-1.62 3.8-2 4.18.32.1 3.74.44 5.2-1.78 1.4-2.06 1.46-4.28 1.46-4.62ZM4.209 9.098c.38.06 1.68 1.74 4.02 1.96 2.54.28 3.42-1.02 3.459-1.02 0-.16-2.06-2.38-4.34-2.38-1.579.04-3.139 1.44-3.139 1.44Zm9.259 1.14c-.06.06-2.16 2.88-7.16 2.12C2.29 11.698.83 9.478.57 9.438c.32-.44 3.36-2.88 6.879-2.82 3.46.1 6.019 2.06 6.019 2.06h2.22c-1.78-.54-3.96-1.52-4.94-3.679-.86-2-.7-3.2-1.08-4.879 0 0 4.02-.32 7.1 1.68 2.819 1.84 4.378 6.719 4.438 6.879h1.74L22.566 0l2.16.06c-.38 2.28.1 18.537 0 18.537-.22.06-2.06.16-2.22-.28 0 0 .44-7.959.48-8.119h-1.68c0 .1-.16 4.6-3.579 7-3.42 2.379-8.339 1.679-8.339 1.679.6-.92 0-1.9 1.74-4.56 2-3.039 4.66-4.119 4.6-4.119-.14.04-2.2.04-2.26.04ZM119.57 5.179c.16 0 .26-.06.26-.2 0-.12-.06-.2-.26-.2h-.16v.4h.16Zm-.32-.54h.36c.2 0 .4.08.4.34 0 .14-.08.26-.2.3l.26.46h-.2l-.2-.4h-.24v.4h-.16v-1.1h-.02Zm1.14.56c0-.5-.36-.88-.8-.88-.44 0-.8.38-.8.88s.36.86.8.86c.44 0 .8-.36.8-.86Zm-1.74 0c0-.62.44-1.02.96-1.02s.96.4.96 1.02c0 .6-.42 1.02-.96 1.02-.52-.02-.96-.42-.96-1.02Z"/></g><defs><clipPath id="a"><path fill="#fff" transform="translate(.57)" d="M0 0h120v22H0z"/></clipPath></defs></svg>