<svg width="17" height="17" fill="none" xmlns="http://www.w3.org/2000/svg"><g clip-path="url(#a)"><path d="m4.194 10.238-.557 2.08-2.035.043a7.965 7.965 0 0 1-.954-3.792 7.96 7.96 0 0 1 .895-3.679l1.813.332.793 1.802a4.755 4.755 0 0 0 .045 3.214Z" fill="#FBBB00"/><path d="M16.509 7.075a8.006 8.006 0 0 1-.035 3.165 7.998 7.998 0 0 1-2.817 4.568l-2.283-.117-.323-2.017a4.769 4.769 0 0 0 2.051-2.434H8.824V7.075H16.51Z" fill="#518EF8"/><path d="M13.658 14.807A7.966 7.966 0 0 1 8.65 16.57a7.999 7.999 0 0 1-7.046-4.208l2.592-2.123a4.757 4.757 0 0 0 6.856 2.436l2.606 2.133Z" fill="#28B446"/><path d="m13.757 2.411-2.591 2.122a4.758 4.758 0 0 0-7.014 2.491L1.546 4.89A7.998 7.998 0 0 1 8.65.57c1.941 0 3.72.69 5.106 1.841Z" fill="#F14336"/></g><defs><clipPath id="a"><path fill="#fff" transform="translate(.648 .57)" d="M0 0h16v16H0z"/></clipPath></defs></svg>