<svg width="17" height="16" fill="none" xmlns="http://www.w3.org/2000/svg"><g clip-path="url(#a)"><path d="m7.473 15.26-1.525-.504c-.16-.05-.25-.241-.205-.423L9.155.975c.045-.182.213-.284.373-.233l1.525.503c.16.051.25.241.205.423L7.845 15.026c-.047.182-.212.287-.372.233Zm-2.85-3.188 1.087-1.318a.374.374 0 0 0-.02-.49L3.425 8.002 5.69 5.736a.371.371 0 0 0 .02-.488L4.623 3.93a.276.276 0 0 0-.425-.015L.595 7.751a.37.37 0 0 0 0 .497l3.603 3.838c.122.13.312.125.425-.014Zm8.18.017 3.602-3.838a.37.37 0 0 0 0-.497l-3.602-3.841a.278.278 0 0 0-.425.014L11.29 5.245a.374.374 0 0 0 .02.489L13.575 8l-2.265 2.264a.371.371 0 0 0-.02.489l1.088 1.318c.112.139.302.145.425.017Z" fill="#000"/></g><defs><clipPath id="a"><path fill="#fff" transform="translate(.5 .727)" d="M0 0h16v14.546H0z"/></clipPath></defs></svg>