<svg width="17" height="16" fill="none" xmlns="http://www.w3.org/2000/svg"><g clip-path="url(#a)"><path d="M8.502 3.898A4.095 4.095 0 0 0 4.4 8a4.095 4.095 0 0 0 4.102 4.102A4.095 4.095 0 0 0 12.603 8a4.095 4.095 0 0 0-4.101-4.102Zm0 6.769A2.672 2.672 0 0 1 5.835 8a2.67 2.67 0 0 1 2.667-2.667A2.67 2.67 0 0 1 11.168 8c0 1.47-1.2 2.667-2.666 2.667Zm5.225-6.937a.954.954 0 0 1-.956.957.957.957 0 1 1 .957-.957Zm2.717.971c-.06-1.282-.354-2.417-1.292-3.352C14.217.413 13.082.12 11.8.056c-1.32-.075-5.28-.075-6.6 0-1.278.06-2.413.354-3.352 1.29C.91 2.28.62 3.415.556 4.697c-.075 1.32-.075 5.28 0 6.6.06 1.283.354 2.418 1.292 3.353.94.936 2.07 1.229 3.352 1.293 1.32.075 5.28.075 6.6 0 1.281-.06 2.416-.354 3.352-1.293.935-.935 1.228-2.07 1.292-3.352.075-1.321.075-5.277 0-6.598Zm-1.706 8.015a2.7 2.7 0 0 1-1.521 1.521c-1.053.418-3.552.322-4.715.322-1.164 0-3.666.092-4.715-.322a2.7 2.7 0 0 1-1.521-1.52C1.848 11.662 1.945 9.163 1.945 8c0-1.164-.093-3.667.321-4.716a2.7 2.7 0 0 1 1.52-1.521c1.054-.418 3.552-.322 4.716-.322 1.163 0 3.666-.092 4.715.322a2.7 2.7 0 0 1 1.52 1.52c.418 1.054.322 3.553.322 4.717 0 1.164.096 3.667-.321 4.716Z" fill="#000"/></g><defs><clipPath id="a"><path fill="#fff" transform="translate(.5)" d="M0 0h16v16H0z"/></clipPath></defs></svg>