<svg width="17" height="16" fill="none" xmlns="http://www.w3.org/2000/svg"><g clip-path="url(#a)"><path d="M14.722 9.818s-1.778 2.632-1.778 3.637c0 1.004.796 1.818 1.778 1.818s1.778-.814 1.778-1.818c0-1.005-1.778-3.637-1.778-3.637Zm-.26-2.924-5.77-5.9a.876.876 0 0 0-1.257 0L5.17 3.31 2.775.863a.437.437 0 0 0-.628 0l-.628.642a.462.462 0 0 0 0 .643l2.394 2.448-2.632 2.692a2.77 2.77 0 0 0 0 3.857l3.255 3.329a2.627 2.627 0 0 0 3.77 0l6.155-6.295a.924.924 0 0 0 0-1.285ZM11.233 8.91H2.331c.038-.11.1-.227.206-.336l.366-.374L5.17 5.882l1.627 1.665a.875.875 0 0 0 1.257 0 .924.924 0 0 0 0-1.286L6.426 4.597l1.638-1.675 4.512 4.615-1.343 1.373Z" fill="#06F"/></g><defs><clipPath id="a"><path fill="#fff" transform="translate(.5)" d="M0 0h16v16H0z"/></clipPath></defs></svg>