<svg width="17" height="16" fill="none" xmlns="http://www.w3.org/2000/svg"><g clip-path="url(#a)"><path d="M9.75.998h6a.75.75 0 0 1 .75.75v5a.75.75 0 0 1-.75.75h-6a.75.75 0 0 1-.75-.75v-5a.75.75 0 0 1 .75-.75Zm-2.5 0h-6a.75.75 0 0 0-.75.75v5c0 .414.336.75.75.75h6a.75.75 0 0 0 .75-.75v-5a.75.75 0 0 0-.75-.75ZM.5 9.248v5c0 .414.336.75.75.75h6a.75.75 0 0 0 .75-.75v-5a.75.75 0 0 0-.75-.75h-6a.75.75 0 0 0-.75.75Zm9.25 5.75h6a.75.75 0 0 0 .75-.75v-5a.75.75 0 0 0-.75-.75h-6a.75.75 0 0 0-.75.75v5c0 .414.336.75.75.75Z" fill="#000"/></g><defs><clipPath id="a"><path fill="#fff" transform="translate(.5)" d="M0 0h16v16H0z"/></clipPath></defs></svg>