<svg width="16" height="16" fill="none" xmlns="http://www.w3.org/2000/svg"><path d="M0 14.5c0 .828.768 1.5 1.714 1.5h12.572c.946 0 1.714-.672 1.714-1.5V6H0v8.5Zm11.429-6.125c0-.206.192-.375.428-.375h1.429c.235 0 .428.169.428.375v1.25c0 .206-.193.375-.428.375h-1.429c-.236 0-.428-.169-.428-.375v-1.25Zm0 4c0-.206.192-.375.428-.375h1.429c.235 0 .428.169.428.375v1.25c0 .206-.193.375-.428.375h-1.429c-.236 0-.428-.169-.428-.375v-1.25Zm-4.572-4c0-.206.193-.375.429-.375h1.428c.236 0 .429.169.429.375v1.25c0 .206-.193.375-.429.375H7.286c-.236 0-.429-.169-.429-.375v-1.25Zm0 4c0-.206.193-.375.429-.375h1.428c.236 0 .429.169.429.375v1.25c0 .206-.193.375-.429.375H7.286c-.236 0-.429-.169-.429-.375v-1.25Zm-4.571-4c0-.206.193-.375.428-.375h1.429c.236 0 .428.169.428.375v1.25c0 .206-.192.375-.428.375H2.714c-.235 0-.428-.169-.428-.375v-1.25Zm0 4c0-.206.193-.375.428-.375h1.429c.236 0 .428.169.428.375v1.25c0 .206-.192.375-.428.375H2.714c-.235 0-.428-.169-.428-.375v-1.25ZM14.286 2H12.57V.5c0-.275-.257-.5-.571-.5h-1.143c-.314 0-.571.225-.571.5V2H5.714V.5c0-.275-.257-.5-.571-.5H4c-.314 0-.571.225-.571.5V2H1.714C.768 2 0 2.672 0 3.5V5h16V3.5c0-.828-.768-1.5-1.714-1.5Z" fill="#000"/></svg>