<svg width="51" height="52" fill="none" xmlns="http://www.w3.org/2000/svg"><rect y=".676" width="50.5" height="50.5" rx="3.75" fill="#06F"/><g clip-path="url(#a)"><path d="M38.375 32.926H14.75V16.3a.875.875 0 0 0-.875-.875h-1.75a.875.875 0 0 0-.875.875v18.375c0 .966.784 1.75 1.75 1.75h25.375a.875.875 0 0 0 .875-.875V33.8a.875.875 0 0 0-.875-.875Zm-1.75-15.75h-6.456c-1.17 0-1.755 1.414-.928 2.24l1.771 1.772L27 25.201l-4.012-4.012a1.75 1.75 0 0 0-2.475 0l-3.757 3.756a.875.875 0 0 0 0 1.238l1.238 1.237a.875.875 0 0 0 1.237 0l2.519-2.52 4.012 4.013a1.75 1.75 0 0 0 2.475 0l5.25-5.25 1.772 1.772c.827.827 2.24.24 2.24-.928V18.05a.874.874 0 0 0-.874-.875Z" fill="#fff"/></g><defs><clipPath id="a"><path fill="#fff" transform="translate(11.25 11.926)" d="M0 0h28v28H0z"/></clipPath></defs></svg>