<svg width="50" height="51" fill="none" xmlns="http://www.w3.org/2000/svg"><rect y=".176" width="50" height="50" rx="3.75" fill="#06F"/><g clip-path="url(#a)"><path d="M31.162 18.584a8.96 8.96 0 0 0-6.17-2.432 9.034 9.034 0 0 0-8.744 6.814.646.646 0 0 1-.626.491h-3.077a.644.644 0 0 1-.635-.761c1.163-6.172 6.58-10.84 13.09-10.84 3.569 0 6.81 1.403 9.202 3.689l1.918-1.919c.812-.812 2.2-.237 2.2.912v7.2c0 .712-.577 1.29-1.289 1.29h-7.2c-1.149 0-1.724-1.39-.912-2.201l2.243-2.243Zm-18.193 8.74h7.2c1.149 0 1.724 1.389.912 2.2l-2.243 2.243a8.96 8.96 0 0 0 6.17 2.432c4.159-.003 7.752-2.854 8.744-6.813a.646.646 0 0 1 .626-.491h3.078c.402 0 .708.365.634.761-1.163 6.171-6.58 10.84-13.09 10.84-3.569 0-6.81-1.404-9.201-3.689l-1.919 1.918c-.812.812-2.2.237-2.2-.911v-7.2c0-.713.577-1.29 1.289-1.29Z" fill="#fff"/></g><defs><clipPath id="a"><path fill="#fff" transform="translate(11.25 11.426)" d="M0 0h27.5v27.5H0z"/></clipPath></defs></svg>