<svg width="51" height="52" fill="none" xmlns="http://www.w3.org/2000/svg"><rect y=".676" width="50.5" height="50.5" rx="3.75" fill="#06F"/><g clip-path="url(#a)"><path d="m23.452 38.628-2.669-.88c-.28-.09-.437-.422-.358-.74l5.971-23.379c.079-.318.372-.497.652-.407l2.669.88c.28.089.437.422.358.74l-5.971 23.379c-.083.318-.372.502-.652.407Zm-4.987-5.578 1.903-2.307a.655.655 0 0 0-.035-.855l-3.964-3.963 3.964-3.963a.65.65 0 0 0 .035-.855L18.465 18.8a.482.482 0 0 0-.744-.025l-6.304 6.712a.65.65 0 0 0 0 .87l6.304 6.718a.48.48 0 0 0 .744-.025Zm14.314.03 6.304-6.718a.65.65 0 0 0 0-.87l-6.304-6.722a.486.486 0 0 0-.744.025l-1.903 2.307a.654.654 0 0 0 .035.855l3.964 3.968-3.964 3.962a.65.65 0 0 0-.035.856l1.903 2.307c.197.243.53.253.744.03Z" fill="#fff"/></g><defs><clipPath id="a"><path fill="#fff" transform="translate(11.25 11.926)" d="M0 0h28v28H0z"/></clipPath></defs></svg>