<svg width="51" height="51" fill="none" xmlns="http://www.w3.org/2000/svg"><rect y=".176" width="50.5" height="50.5" rx="3.75" fill="#06F"/><path d="M25.253 18.247a7.167 7.167 0 0 0-7.177 7.179 7.167 7.167 0 0 0 7.177 7.179 7.167 7.167 0 0 0 7.177-7.18 7.167 7.167 0 0 0-7.177-7.178Zm0 11.846a4.675 4.675 0 0 1-4.666-4.667 4.671 4.671 0 0 1 4.666-4.667 4.671 4.671 0 0 1 4.666 4.667 4.675 4.675 0 0 1-4.666 4.667Zm9.145-12.14c0 .931-.75 1.675-1.674 1.675a1.674 1.674 0 1 1 1.674-1.674Zm4.754 1.7c-.107-2.243-.619-4.23-2.262-5.867-1.636-1.637-3.623-2.15-5.865-2.262-2.311-.131-9.239-.131-11.55 0-2.236.106-4.223.619-5.865 2.256-1.643 1.637-2.15 3.624-2.262 5.867-.13 2.311-.13 9.24 0 11.552.107 2.243.619 4.23 2.262 5.867 1.643 1.637 3.623 2.149 5.865 2.261 2.311.132 9.239.132 11.55 0 2.242-.106 4.229-.618 5.865-2.261 1.637-1.637 2.15-3.624 2.262-5.867.13-2.312.13-9.235 0-11.546Zm-2.986 14.026a4.725 4.725 0 0 1-2.661 2.662c-1.843.73-6.216.562-8.252.562-2.036 0-6.415.163-8.252-.562a4.725 4.725 0 0 1-2.66-2.662c-.731-1.843-.563-6.216-.563-8.253s-.162-6.417.563-8.254A4.724 4.724 0 0 1 17 14.511c1.843-.731 6.216-.563 8.252-.563 2.037 0 6.415-.162 8.252.563a4.725 4.725 0 0 1 2.66 2.661c.732 1.843.563 6.217.563 8.254s.169 6.416-.562 8.253Z" fill="#fff"/></svg>