<svg width="51" height="52" fill="none" xmlns="http://www.w3.org/2000/svg"><rect y=".676" width="50.5" height="50.5" rx="3.75" fill="#06F"/><g clip-path="url(#a)"><path d="M25.25 11.926c-7.732 0-14 6.268-14 14s6.268 14 14 14 14-6.268 14-14-6.268-14-14-14Zm4.645 20.187-.638.637c-.169.169-.288.378-.348.604-.086.32-.154.643-.27.953l-.981 2.644c-.777.17-1.581.265-2.408.265V35.67c.095-.712-.431-2.047-1.277-2.893a1.807 1.807 0 0 1-.53-1.277v-1.807a1.8 1.8 0 0 0-.929-1.58 93.525 93.525 0 0 0-2.755-1.473 8.139 8.139 0 0 1-1.787-1.228l-.045-.04a6.482 6.482 0 0 1-1.02-1.171c-.529-.778-1.392-2.056-1.952-2.887a11.352 11.352 0 0 1 5.826-5.752l1.355.678a.903.903 0 0 0 1.308-.808v-.638c.45-.073.91-.119 1.376-.136l1.598 1.597a.903.903 0 0 1 0 1.278l-.265.264-.583.584a.452.452 0 0 0 0 .638l.264.265a.452.452 0 0 1 0 .638l-.451.452a.453.453 0 0 1-.32.132h-.507a.451.451 0 0 0-.315.128l-.56.545a.452.452 0 0 0-.09.525l.88 1.761c.15.3-.068.654-.403.654h-.319a.451.451 0 0 1-.295-.11l-.524-.456a.904.904 0 0 0-.878-.175l-1.76.587a.674.674 0 0 0-.088 1.243l.626.313a3.823 3.823 0 0 0 1.71.404c.595 0 1.276 1.54 1.807 1.807h3.768c.48 0 .939.19 1.278.529l.773.772c.323.323.504.761.504 1.218a2.627 2.627 0 0 1-.775 1.862Zm4.895-5.157a1.355 1.355 0 0 1-.798-.563l-1.015-1.522a1.353 1.353 0 0 1 0-1.503l1.105-1.659c.131-.195.31-.355.522-.46l.733-.366a11.202 11.202 0 0 1 1.203 5.043c0 .49-.041.969-.102 1.442l-1.648-.412Z" fill="#fff"/></g><defs><clipPath id="a"><path fill="#fff" transform="translate(11.25 11.926)" d="M0 0h28v28H0z"/></clipPath></defs></svg>