<svg width="49" height="49" fill="none" xmlns="http://www.w3.org/2000/svg"><rect y=".176" width="48.5" height="48.5" rx="3.75" fill="#06F"/><g clip-path="url(#a)"><path d="M30.317 11.426H18.183c-1.435 0-2.6 1.092-2.6 2.437v21.125c0 1.346 1.165 2.438 2.6 2.438h12.134c1.435 0 2.6-1.092 2.6-2.438V13.863c0-1.345-1.165-2.437-2.6-2.437ZM24.25 35.8c-.959 0-1.733-.726-1.733-1.625s.774-1.625 1.733-1.625c.959 0 1.733.726 1.733 1.625S25.21 35.8 24.25 35.8Zm6.067-5.485c0 .336-.293.61-.65.61H18.833c-.357 0-.65-.274-.65-.61V14.473c0-.336.293-.61.65-.61h10.834c.357 0 .65.274.65.61v15.843Z" fill="#fff"/></g><defs><clipPath id="a"><path fill="#fff" transform="translate(11.25 11.426)" d="M0 0h26v26H0z"/></clipPath></defs></svg>