<svg width="51" height="51" fill="none" xmlns="http://www.w3.org/2000/svg"><rect y=".176" width="50.5" height="50.5" rx="3.75" fill="#06F"/><g clip-path="url(#a)"><path d="M27.438 11.426h10.5c.724 0 1.312.671 1.312 1.5v10c0 .828-.588 1.5-1.313 1.5h-10.5c-.724 0-1.312-.672-1.312-1.5v-10c0-.829.588-1.5 1.313-1.5Zm-4.375 0h-10.5c-.725 0-1.313.671-1.313 1.5v10c0 .828.588 1.5 1.313 1.5h10.5c.724 0 1.312-.672 1.312-1.5v-10c0-.829-.588-1.5-1.313-1.5Zm-11.813 16.5v10c0 .828.588 1.5 1.313 1.5h10.5c.724 0 1.312-.672 1.312-1.5v-10c0-.829-.588-1.5-1.313-1.5h-10.5c-.724 0-1.312.671-1.312 1.5Zm16.188 11.5h10.5c.724 0 1.312-.672 1.312-1.5v-10c0-.829-.588-1.5-1.313-1.5h-10.5c-.724 0-1.312.671-1.312 1.5v10c0 .828.588 1.5 1.313 1.5Z" fill="#fff"/></g><defs><clipPath id="a"><path fill="#fff" transform="translate(11.25 11.426)" d="M0 0h28v28H0z"/></clipPath></defs></svg>