<svg viewBox="0 0 40 40" fill="none" xmlns="http://www.w3.org/2000/svg"><rect width="40" height="40" rx="6.667" fill="#000"/><path d="M19.659 11.504v1.117c0 .961-.18 1.117-.8 1.455l-5.782 2.935v.13l5.755 2.883c.647.337.827.468.827 1.455v1.246c0 .78-.259 1.04-.93.676l-8.698-4.78c-.516-.285-.698-.493-.698-1.09v-.832c0-.597.182-.831.698-1.117l8.698-4.753c.671-.364.93-.104.93.675Z" fill="#fff"/><path d="m20.578 15.612 8.672 4.753c.541.286.723.494.723 1.09v.832c0 .624-.181.831-.723 1.117l-8.672 4.753c-.698.364-.93.105-.93-.675v-1.117c0-.96.18-1.117.8-1.428L26.23 22v-.155l-5.756-2.884c-.646-.311-.826-.467-.826-1.454V16.26c0-.78.232-1.039.93-.65Z" fill="#fff"/></svg>