<svg width="66" height="66" fill="none" xmlns="http://www.w3.org/2000/svg"><rect x=".748" y=".116" width="65.096" height="65.096" rx="6.51" fill="#06F"/><path d="M32.744 18.838v1.817c0 1.564-.293 1.818-1.303 2.367L22.032 27.8v.211l9.366 4.693c1.053.549 1.346.76 1.346 2.367V37.1c0 1.268-.421 1.69-1.513 1.1l-14.156-7.78c-.84-.464-1.135-.803-1.135-1.774v-1.353c0-.973.296-1.353 1.135-1.818l14.156-7.736c1.092-.591 1.513-.169 1.513 1.1Z" fill="#fff"/><path d="m34.238 25.522 14.113 7.736c.882.465 1.178.803 1.178 1.775v1.353c0 1.014-.296 1.352-1.178 1.817L34.238 45.94c-1.135.592-1.513.17-1.513-1.1v-1.817c0-1.564.292-1.817 1.302-2.325l9.41-4.776v-.254l-9.367-4.692c-1.053-.507-1.345-.761-1.345-2.368v-2.029c0-1.268.378-1.69 1.513-1.056Z" fill="#fff"/></svg>