<svg width="40" height="41" fill="none" xmlns="http://www.w3.org/2000/svg"><rect y=".741" width="40" height="40" rx="6.667" fill="#fff"/><path d="M19.659 12.245v1.117c0 .961-.18 1.117-.8 1.455l-5.782 2.935v.13l5.755 2.883c.647.338.827.468.827 1.455v1.247c0 .779-.259 1.039-.93.675l-8.698-4.78c-.516-.285-.698-.493-.698-1.09v-.832c0-.597.182-.83.698-1.117l8.698-4.753c.671-.364.93-.104.93.675Z" fill="#111827"/><path d="m20.578 16.353 8.672 4.753c.541.286.723.494.723 1.091v.831c0 .624-.181.832-.723 1.117L20.578 28.9c-.698.363-.93.104-.93-.676v-1.116c0-.962.18-1.117.8-1.43l5.782-2.934v-.156l-5.756-2.883c-.646-.312-.826-.468-.826-1.455v-1.247c0-.78.232-1.039.93-.65Z" fill="#111827"/></svg>