<svg width="17" height="17" fill="none" xmlns="http://www.w3.org/2000/svg"><rect x=".097" y=".804" width="16.129" height="16.129" rx="8.065" fill="#06F"/><path d="M8.164 4.647v.546c0 .469-.087.545-.39.71L4.95 7.337V7.4l2.81 1.408c.317.165.404.229.404.71v.61c0 .38-.126.507-.454.33L3.462 8.122c-.252-.14-.34-.24-.34-.533v-.406c0-.291.088-.406.34-.545L7.71 4.317c.328-.177.454-.05.454.33Z" fill="#fff"/><path d="m8.613 6.654 4.236 2.321c.264.14.353.241.353.533v.406c0 .305-.089.406-.353.546L8.613 12.78c-.34.178-.454.051-.454-.33v-.545c0-.47.088-.546.391-.698l2.824-1.433v-.076L8.563 8.29c-.316-.152-.404-.228-.404-.71V6.97c0-.38.114-.507.454-.317Z" fill="#fff"/></svg>